#!OML:ASF E:\emotionWalksFemale\Project 1\Capture day 1\Session 1\Female1.ASF
:FULLY-SPECIFIED
:DEGREES
253
root 8.03808 15.5023 32.3454 -176.649 7.32218 -180.418
lowerback 5.35516 0.622384 0.328232
upperback -4.73517 0.951991 -0.487362
thorax -7.96212 0.483402 -0.819536
lowerneck -10.5589 0.0633837 -3.69637
upperneck 13.3857 0.377508 3.32657
head 5.76699 0.319403 1.69299
rclavicle -9.08197e-015 3.42904e-015
rhumerus -55.2088 7.85977 -87.5427
rradius 31.7731
rwrist 22.688
rhand 7.88995 -57.0819
rfingers 7.12502
rthumb 33.1224 -84.0562
lclavicle -9.08197e-015 3.42904e-015
lhumerus -52.1413 5.63794 77.7018
lradius 35.453
lwrist -18.8169
lhand 1.77933 -30.3486
lfingers 7.12502
lthumb 27.2935 -2.30406
rfemur -0.0372424 19.9622 26.4768
rtibia 14.3895
rfoot -17.869 -29.526
rtoes 5.49627
lfemur -3.76911 -24.9123 -24.5398
ltibia 19.3721
lfoot -28.5213 32.7243
ltoes -12.8987
254
root 8.0367 15.4994 32.3483 -176.582 7.19723 -180.377
lowerback 5.39384 0.609589 0.312166
upperback -4.79512 0.937368 -0.483885
thorax -8.04996 0.478208 -0.806748
lowerneck -10.6245 0.0441987 -3.62399
upperneck 13.3862 0.3522 3.24016
head 5.77973 0.303778 1.65203
rclavicle 1.81795e-014 -3.47873e-015
rhumerus -55.541 7.83007 -87.7103
rradius 32.3329
rwrist 22.0847
rhand 8.7478 -56.675
rfingers 7.12502
rthumb 33.9377 -83.4725
lclavicle 1.81795e-014 -3.47873e-015
lhumerus -52.3596 4.87573 78.3662
lradius 35.9401
lwrist -17.8704
lhand 2.42344 -31.3216
lfingers 7.12502
lthumb 27.9095 -3.37552
rfemur -0.0172073 20.1794 26.5355
rtibia 14.2238
rfoot -17.733 -30.042
rtoes 5.38861
lfemur -3.83642 -25.2621 -24.5114
ltibia 19.3739
lfoot -28.5113 32.9845
ltoes -12.5709
255
root 8.03627 15.4978 32.352 -176.585 6.9894 -180.302
lowerback 5.50163 0.566508 0.28916
upperback -4.8364 0.881627 -0.446598
thorax -8.15944 0.453345 -0.750094
lowerneck -10.6798 0.0289271 -3.50998
upperneck 13.4537 0.331775 3.12558
head 5.8117 0.2918 1.59637
rclavicle -9.27455e-015 -2.83268e-015
rhumerus -55.867 7.77558 -87.8135
rradius 32.8046
rwrist 21.1106
rhand 9.00599 -56.3061
rfingers 7.12502
rthumb 34.183 -83.0491
lclavicle -9.27455e-015 -2.83268e-015
lhumerus -52.6321 3.92806 79.2052
lradius 36.5445
lwrist -16.4741
lhand 2.73684 -31.8567
lfingers 7.12502
lthumb 28.2091 -3.95964
rfemur 0.157824 20.4433 26.671
rtibia 13.8652
rfoot -17.3553 -30.5508
rtoes 4.57485
lfemur -3.93345 -25.4686 -24.4358
ltibia 19.5258
lfoot -28.6497 32.9823
ltoes -12.3431
256
root 8.03323 15.4944 32.3567 -176.684 6.7257 -180.07
lowerback 5.65456 0.480062 0.488471
upperback -4.81358 0.785353 -0.380165
thorax -8.22433 0.394768 -0.781675
lowerneck -10.6091 0.0463474 -3.47981
upperneck 13.382 0.340783 3.17537
head 5.77662 0.300794 1.60685
rclavicle 1.66731e-014 1.19271e-015
rhumerus -56.0802 7.69521 -87.8272
rradius 33.1715
rwrist 20.0527
rhand 9.41624 -56.2832
rfingers 7.12502
rthumb 34.5725 -82.938
lclavicle 1.66731e-014 1.19271e-015
lhumerus -52.7868 3.20851 79.8747
lradius 37.0017
lwrist -15.2588
lhand 2.71024 -32.1798
lfingers 7.12502
lthumb 28.1836 -4.2786
rfemur 0.524182 20.5965 27.0083
rtibia 13.3791
rfoot -16.8338 -31.0766
rtoes 4.40662
lfemur -3.96563 -25.5138 -24.2189
ltibia 19.7631
lfoot -28.6908 32.7379
ltoes -12.0386
257
root 8.0279 15.4947 32.3607 -176.659 6.49583 -179.799
lowerback 5.60299 0.392667 0.741291
upperback -4.78419 0.697468 -0.275012
thorax -8.1625 0.340369 -0.800645
lowerneck -10.472 0.094871 -3.67162
upperneck 13.2178 0.398429 3.4124
head 5.69833 0.33507 1.71546
rclavicle -7.46996e-015 -4.17448e-015
rhumerus -56.1023 7.62029 -87.7404
rradius 33.3371
rwrist 19.2567
rhand 9.47333 -56.6129
rfingers 7.12502
rthumb 34.6266 -83.2554
lclavicle -7.46996e-015 -4.17448e-015
lhumerus -52.6956 3.07285 80.2011
lradius 37.134
lwrist -14.8089
lhand 2.9926 -32.1917
lfingers 7.12502
lthumb 28.4535 -4.33526
rfemur 0.761167 20.644 27.3222
rtibia 12.865
rfoot -16.3155 -31.5041
rtoes 4.27557
lfemur -4.15461 -25.4636 -23.8954
ltibia 20.0236
lfoot -28.5437 32.5318
ltoes -12.4404
258
root 8.02236 15.4971 32.3669 -176.551 6.23548 -179.683
lowerback 5.50675 0.320765 0.885693
upperback -4.80691 0.619387 -0.237426
thorax -8.13136 0.296481 -0.83161
lowerneck -10.4127 0.10846 -3.84517
upperneck 13.2054 0.416093 3.61412
head 5.68252 0.350455 1.80871
rclavicle -9.62863e-017 4.47266e-016
rhumerus -55.9566 7.25053 -87.4776
rradius 33.1619
rwrist 19.0389
rhand 8.85052 -56.6914
rfingers 7.12502
rthumb 34.0353 -83.4673
lclavicle -9.62863e-017 4.47266e-016
lhumerus -52.4941 3.09512 80.3157
lradius 37.0636
lwrist -14.7045
lhand 3.28241 -31.9701
lfingers 7.12502
lthumb 28.7304 -4.16029
rfemur 0.833927 20.6131 27.4213
rtibia 12.4275
rfoot -15.8368 -31.8015
rtoes 3.5763
lfemur -4.49586 -25.3493 -23.6638
ltibia 20.2543
lfoot -27.9814 32.4576
ltoes -14.6529
259
root 8.01883 15.4979 32.3746 -176.458 5.97374 -179.701
lowerback 5.44533 0.277318 0.902472
upperback -4.83467 0.563563 -0.259394
thorax -8.12619 0.268697 -0.85699
lowerneck -10.4109 0.0420518 -3.83632
upperneck 13.2182 0.334176 3.54877
head 5.68973 0.306274 1.78036
rclavicle 1.56916e-014 3.23025e-015
rhumerus -55.7057 6.60603 -86.9935
rradius 32.8411
rwrist 19.3978
rhand 8.02507 -56.446
rfingers 7.12502
rthumb 33.2509 -83.3929
lclavicle 1.56916e-014 3.23025e-015
lhumerus -52.304 3.22073 80.2925
lradius 36.9548
lwrist -14.9036
lhand 3.37018 -31.524
lfingers 7.12502
lthumb 28.8142 -3.72849
rfemur 0.866691 20.5403 27.3711
rtibia 12.1165
rfoot -15.6301 -31.9111
rtoes 3.32892
lfemur -4.81209 -25.1751 -23.5598
ltibia 20.4236
lfoot -27.6731 32.1736
ltoes -16.2222
260
root 8.01783 15.4989 32.3816 -176.483 5.74922 -179.693
lowerback 5.44262 0.293577 0.918991
upperback -4.77041 0.581325 -0.275578
thorax -8.05453 0.274914 -0.884691
lowerneck -10.5872 -0.0824517 -3.78461
upperneck 13.3044 0.183453 3.38523
head 5.75331 0.223572 1.70993
rclavicle 3.75827e-015 -1.98785e-016
rhumerus -55.4166 5.97897 -86.5486
rradius 32.6509
rwrist 19.6161
rhand 6.54398 -56.2409
rfingers 7.12502
rthumb 31.8415 -83.4785
lclavicle 3.75827e-015 -1.98785e-016
lhumerus -51.95 3.51416 80.1647
lradius 36.7301
lwrist -15.5978
lhand 3.4334 -31.1749
lfingers 7.12502
lthumb 28.8746 -3.38962
rfemur 1.0068 20.5573 27.4186
rtibia 11.9274
rfoot -15.8546 -32.0189
rtoes 3.8221
lfemur -4.92322 -24.9808 -23.4885
ltibia 20.5505
lfoot -27.5981 31.7679
ltoes -16.6406
261
root 8.01558 15.4987 32.3899 -176.631 5.54504 -179.609
lowerback 5.53546 0.326799 1.01091
upperback -4.67554 0.627484 -0.275216
thorax -8.00475 0.289866 -0.941384
lowerneck -10.6208 -0.186444 -3.6687
upperneck 13.3425 0.0442171 3.25047
head 5.77661 0.152009 1.63769
rclavicle -6.93883e-015 -2.28602e-015
rhumerus -55.1252 5.38242 -86.1814
rradius 32.4573
rwrist 19.9462
rhand 4.83391 -56.2563
rfingers 7.12502
rthumb 30.2115 -83.8051
lclavicle -6.93883e-015 -2.28602e-015
lhumerus -51.4714 3.93752 79.9352
lradius 36.3653
lwrist -16.5642
lhand 3.12736 -31.0768
lfingers 7.12502
lthumb 28.5823 -3.24198
rfemur 1.21275 20.5931 27.5858
rtibia 11.8546
rfoot -16.0578 -32.2365
rtoes 4.28813
lfemur -4.87719 -24.7552 -23.4131
ltibia 20.6527
lfoot -27.2321 31.5733
ltoes -17.0947
262
root 8.01055 15.4966 32.3979 -176.77 5.37568 -179.517
lowerback 5.60992 0.327538 1.08199
upperback -4.63297 0.635591 -0.226441
thorax -8.00216 0.290046 -0.931233
lowerneck -10.3613 -0.24694 -3.65639
upperneck 13.2505 -0.039564 3.22377
head 5.70658 0.109775 1.61904
rclavicle -4.24281e-015 -6.4605e-016
rhumerus -54.8241 4.87147 -85.6967
rradius 32.0699
rwrist 20.8013
rhand 3.46957 -55.9402
rfingers 7.12502
rthumb 28.9092 -83.7195
lclavicle -4.24281e-015 -6.4605e-016
lhumerus -51.1359 4.52495 79.6872
lradius 36.0511
lwrist -17.3744
lhand 2.36408 -31.2125
lfingers 7.12502
lthumb 27.8527 -3.25717
rfemur 1.34442 20.4439 27.7038
rtibia 11.8406
rfoot -16.0768 -32.2878
rtoes 4.5366
lfemur -4.84881 -24.588 -23.3443
ltibia 20.7365
lfoot -26.8497 31.5308
ltoes -17.82
263
root 8.00645 15.4925 32.4037 -176.891 5.27741 -179.475
lowerback 5.63508 0.337079 1.0753
upperback -4.59793 0.650535 -0.156798
thorax -7.97954 0.299293 -0.855913
lowerneck -10.1575 -0.310507 -3.78022
upperneck 13.261 -0.106184 3.22494
head 5.67769 0.0725868 1.63423
rclavicle 1.05294e-014 4.96962e-015
rhumerus -54.4733 4.39452 -85.0802
rradius 31.6684
rwrist 21.9954
rhand 2.52716 -55.6631
rfingers 7.12502
rthumb 28.0086 -83.593
lclavicle 1.05294e-014 4.96962e-015
lhumerus -50.8082 5.29592 79.3882
lradius 35.7097
lwrist -18.1683
lhand 1.5932 -31.3709
lfingers 7.12502
lthumb 27.1155 -3.29846
rfemur 1.46428 20.2382 27.7544
rtibia 11.8276
rfoot -16.126 -32.2063
rtoes 4.41143
lfemur -4.80525 -24.5093 -23.3257
ltibia 20.7727
lfoot -26.6775 31.5395
ltoes -18.1855
264
root 8.00404 15.4891 32.4098 -176.975 5.21018 -179.467
lowerback 5.5871 0.377006 1.0449
upperback -4.53573 0.698914 -0.132135
thorax -7.88393 0.325103 -0.81764
lowerneck -10.1093 -0.390512 -3.87305
upperneck 13.3222 -0.208173 3.29784
head 5.69252 0.0252574 1.66512
rclavicle -1.14053e-014 -2.23633e-015
rhumerus -53.93 3.63141 -84.2972
rradius 31.3228
rwrist 24.1186
rhand 2.85673 -56.0627
rfingers 7.12502
rthumb 28.3236 -83.9407
lclavicle -1.14053e-014 -2.23633e-015
lhumerus -50.2606 6.14857 78.967
lradius 35.1557
lwrist -19.2053
lhand 0.874172 -31.311
lfingers 7.12502
lthumb 26.4274 -3.13322
rfemur 1.54653 20.1459 27.7798
rtibia 11.8442
rfoot -16.2961 -32.1731
rtoes 4.3025
lfemur -4.7611 -24.4288 -23.3198
ltibia 20.7418
lfoot -26.6065 31.4563
ltoes -18.1583
265
root 8.00265 15.4915 32.4147 -177.081 5.11172 -179.487
lowerback 5.53212 0.441943 1.02365
upperback -4.46034 0.777628 -0.152339
thorax -7.76892 0.363725 -0.834986
lowerneck -10.0764 -0.493031 -3.99382
upperneck 13.3538 -0.355907 3.50234
head 5.70267 -0.0362943 1.73842
rclavicle 2.24099e-014 7.45443e-016
rhumerus -53.3909 2.94756 -83.8114
rradius 30.5751
rwrist 24.875
rhand -1.10039 -54.7123
rfingers 7.12502
rthumb 24.536 -83.1603
lclavicle 2.24099e-014 7.45443e-016
lhumerus -49.7394 6.82252 78.5806
lradius 34.6128
lwrist -20.337
lhand -0.0369175 -31.3891
lfingers 7.12502
lthumb 25.555 -3.08324
rfemur 1.62052 20.1172 27.7951
rtibia 11.9102
rfoot -16.3909 -32.2249
rtoes 4.31952
lfemur -4.65328 -24.3213 -23.3548
ltibia 20.6655
lfoot -26.4059 31.3024
ltoes -18.4507
266
root 8.00055 15.4947 32.4177 -177.218 5.00957 -179.511
lowerback 5.49719 0.513072 1.01475
upperback -4.36355 0.863628 -0.183725
thorax -7.64229 0.40447 -0.871601
lowerneck -10.0651 -0.608959 -4.01372
upperneck 13.3825 -0.518006 3.56683
head 5.71631 -0.11046 1.74973
rclavicle 2.91654e-015 2.08724e-015
rhumerus -52.8974 2.28232 -83.3031
rradius 30.2168
rwrist 26.5337
rhand -2.76339 -53.8724
rfingers 7.12502
rthumb 22.941 -82.5275
lclavicle 2.91654e-015 2.08724e-015
lhumerus -49.3936 7.41859 78.3137
lradius 34.4129
lwrist -21.2844
lhand -0.915844 -31.5821
lfingers 7.12502
lthumb 24.7129 -3.15823
rfemur 1.75616 20.0816 27.8195
rtibia 11.9383
rfoot -16.439 -32.316
rtoes 4.35367
lfemur -4.49389 -24.2717 -23.4242
ltibia 20.5934
lfoot -26.0677 31.2951
ltoes -19.1701
267
root 7.99678 15.4949 32.4208 -177.314 4.93497 -179.491
lowerback 5.46553 0.560641 1.11684
upperback -4.28227 0.926871 -0.246348
thorax -7.53288 0.427508 -1.00056
lowerneck -10.1634 -0.708459 -3.86681
upperneck 13.5094 -0.663792 3.51285
head 5.77816 -0.175593 1.69824
rclavicle 1.01256e-015 1.68967e-015
rhumerus -52.3926 1.76204 -83.0083
rradius 30.0952
rwrist 27.9848
rhand -1.62718 -54.9698
rfingers 7.12502
rthumb 24.0309 -83.4853
lclavicle 1.01256e-015 1.68967e-015
lhumerus -49.1337 8.05837 78.0278
lradius 34.464
lwrist -21.9386
lhand -1.42928 -31.5224
lfingers 7.12502
lthumb 24.2207 -3.032
rfemur 1.88825 19.9596 27.8574
rtibia 11.9292
rfoot -16.6219 -32.1102
rtoes 4.61288
lfemur -4.38895 -24.3056 -23.4396
ltibia 20.5418
lfoot -25.9091 31.3525
ltoes -19.817
